<svg width="999" height="71" viewBox="0 0 999 71" fill="none" xmlns="http://www.w3.org/2000/svg">
<path d="M17.952 43.656V40.656H15.5216L15.0173 43.0335L17.952 43.656ZM12.576 69V72H15.0064L15.5107 69.6225L12.576 69ZM0 69L-2.93511 68.3794L-3.70061 72H0V69ZM14.208 1.8V-1.2H11.776L11.2729 1.17943L14.208 1.8ZM45.792 3.144L44.6778 5.92942L44.6912 5.93478L44.7047 5.94001L45.792 3.144ZM55.296 12.552L52.4938 13.6234L52.5075 13.659L52.522 13.6942L55.296 12.552ZM49.632 37.032L51.69 39.2148L49.632 37.032ZM41.568 41.928L42.6025 44.744L41.568 41.928ZM20.544 31.56L17.6092 30.938L16.8415 34.56H20.544V31.56ZM40.416 28.68L42.4009 30.9295L40.416 28.68ZM41.376 15.816L39.4075 18.0798L39.4597 18.1252L39.5139 18.1681L41.376 15.816ZM24.288 13.896V10.896H21.8572L21.3532 13.2739L24.288 13.896ZM15.0173 43.0335L9.6413 68.3775L15.5107 69.6225L20.8867 44.2785L15.0173 43.0335ZM12.576 66H0V72H12.576V66ZM2.93511 69.6206L17.1431 2.42056L11.2729 1.17943L-2.93511 68.3794L2.93511 69.6206ZM14.208 4.8H38.208V-1.2H14.208V4.8ZM38.208 4.8C40.7052 4.8 42.8462 5.19678 44.6778 5.92942L46.9062 0.358566C44.2578 -0.70079 41.3428 -1.2 38.208 -1.2V4.8ZM44.7047 5.94001C46.6572 6.69931 48.2471 7.72975 49.5267 9.00932L53.7693 4.76668C51.8489 2.84624 49.5349 1.38068 46.8793 0.34798L44.7047 5.94001ZM49.5267 9.00932C50.8195 10.3022 51.8079 11.8294 52.4938 13.6234L58.0982 11.4806C57.1201 8.9226 55.6765 6.67382 53.7693 4.76668L49.5267 9.00932ZM52.522 13.6942C53.2561 15.4772 53.64 17.4532 53.64 19.656H59.64C59.64 16.7388 59.1279 13.9788 58.07 11.4098L52.522 13.6942ZM53.64 19.656C53.64 22.8961 53.0915 25.7647 52.0432 28.3027L57.5888 30.5933C58.9725 27.2433 59.64 23.5839 59.64 19.656H53.64ZM52.0432 28.3027C50.9836 30.8681 49.4942 33.0387 47.574 34.8492L51.69 39.2148C54.2498 36.8013 56.2164 33.9159 57.5888 30.5933L52.0432 28.3027ZM47.574 34.8492C45.6532 36.6602 43.3218 38.0877 40.5336 39.112L42.6025 44.744C46.0862 43.4643 49.1308 41.6278 51.69 39.2148L47.574 34.8492ZM40.5336 39.112C37.7744 40.1256 34.643 40.656 31.104 40.656V46.656C35.245 46.656 39.0896 46.0344 42.6025 44.744L40.5336 39.112ZM31.104 40.656H17.952V46.656H31.104V40.656ZM20.544 34.56H32.256V28.56H20.544V34.56ZM32.256 34.56C36.1533 34.56 39.6077 33.3941 42.4009 30.9295L38.4311 26.4305C36.8723 27.8059 34.8867 28.56 32.256 28.56V34.56ZM42.4009 30.9295C45.264 28.4033 46.68 25.0676 46.68 21.192H40.68C40.68 23.4604 39.9201 25.1167 38.4311 26.4305L42.4009 30.9295ZM46.68 21.192C46.68 18.1198 45.6445 15.3689 43.2381 13.4639L39.5139 18.1681C40.1795 18.6951 40.68 19.5282 40.68 21.192H46.68ZM43.3445 13.5522C41.2016 11.6888 38.4906 10.896 35.52 10.896V16.896C37.4134 16.896 38.6064 17.3832 39.4075 18.0798L43.3445 13.5522ZM35.52 10.896H24.288V16.896H35.52V10.896ZM21.3532 13.2739L17.6092 30.938L23.4788 32.182L27.2228 14.5181L21.3532 13.2739ZM72.9893 1.8V-1.2H70.5572L70.0541 1.17943L72.9893 1.8ZM85.6612 1.8L88.5953 2.42578L89.3686 -1.2H85.6612V1.8ZM79.8053 29.256L76.8712 28.6302L76.0979 32.256H79.8053V29.256ZM99.0052 29.256V32.256H101.433L101.939 29.8818L99.0052 29.256ZM104.861 1.8V-1.2H102.434L101.927 1.17421L104.861 1.8ZM117.533 1.8L120.468 2.42458L121.239 -1.2H117.533V1.8ZM103.229 69V72H105.658L106.164 69.6246L103.229 69ZM90.5573 69L87.6224 68.3784L86.8553 72H90.5573V69ZM96.4133 41.352L99.3481 41.9736L100.115 38.352H96.4133V41.352ZM77.2132 41.352V38.352H74.7821L74.2784 40.7304L77.2132 41.352ZM71.3573 69V72H73.7884L74.2921 69.6216L71.3573 69ZM58.7812 69L55.8461 68.3794L55.0806 72H58.7812V69ZM72.9893 4.8H85.6612V-1.2H72.9893V4.8ZM82.7272 1.17421L76.8712 28.6302L82.7393 29.8818L88.5953 2.42578L82.7272 1.17421ZM79.8053 32.256H99.0052V26.256H79.8053V32.256ZM101.939 29.8818L107.795 2.42578L101.927 1.17421L96.0712 28.6302L101.939 29.8818ZM104.861 4.8H117.533V-1.2H104.861V4.8ZM114.599 1.17542L100.295 68.3754L106.164 69.6246L120.468 2.42458L114.599 1.17542ZM103.229 66H90.5573V72H103.229V66ZM93.4921 69.6216L99.3481 41.9736L93.4784 40.7304L87.6224 68.3784L93.4921 69.6216ZM96.4133 38.352H77.2132V44.352H96.4133V38.352ZM74.2784 40.7304L68.4224 68.3784L74.2921 69.6216L80.1481 41.9736L74.2784 40.7304ZM71.3573 66H58.7812V72H71.3573V66ZM61.7164 69.6206L75.9244 2.42056L70.0541 1.17943L55.8461 68.3794L61.7164 69.6206ZM123.802 27.912L126.738 28.5329L126.739 28.527L123.802 27.912ZM133.691 7.07999L131.63 4.89978L131.622 4.90688L131.615 4.91403L133.691 7.07999ZM161.915 2.088L160.765 4.85922L160.795 4.87128L160.824 4.88273L161.915 2.088ZM168.538 6.504L166.345 8.55095L166.363 8.56952L166.38 8.58778L168.538 6.504ZM172.57 13.128L169.739 14.119L169.75 14.1503L169.762 14.1814L172.57 13.128ZM173.818 24.648L170.839 24.2975L170.829 24.3844L170.824 24.4718L173.818 24.648ZM173.339 27.912L170.418 27.2249L170.41 27.2579L170.403 27.2911L173.339 27.912ZM170.171 42.888L167.235 42.2671L167.234 42.273L170.171 42.888ZM160.187 63.72L158.126 61.5398L158.118 61.5469L158.111 61.554L160.187 63.72ZM132.059 68.808L130.909 71.5792L130.939 71.5913L130.968 71.6027L132.059 68.808ZM125.435 64.392L123.241 66.439L123.259 66.4575L123.276 66.4758L125.435 64.392ZM121.307 57.768L118.475 58.759L118.49 58.8022L118.506 58.8449L121.307 57.768ZM120.059 46.152L117.079 45.8015L117.069 45.8884L117.064 45.9758L120.059 46.152ZM120.634 42.888L123.555 43.5751L123.563 43.5421L123.57 43.5089L120.634 42.888ZM147.995 57.672L149.252 60.3959L149.294 60.3762L149.336 60.3553L147.995 57.672ZM152.314 54.408L150.142 52.339L150.116 52.3668L150.09 52.3953L152.314 54.408ZM155.387 49.608L152.649 48.3808L152.631 48.4206L152.614 48.4609L155.387 49.608ZM157.307 43.656L154.374 43.0251L154.372 43.0335L157.307 43.656ZM160.859 27.144L163.791 27.7749L163.8 27.736L163.807 27.6969L160.859 27.144ZM161.243 24.552L158.283 24.0588L158.265 24.1691L158.255 24.2804L161.243 24.552ZM158.842 14.76L156.609 16.7626L156.645 16.8032L156.683 16.8424L158.842 14.76ZM145.979 13.224L147.236 15.9479L147.278 15.9282L147.32 15.9073L145.979 13.224ZM141.562 16.392L139.39 14.323L139.364 14.3508L139.338 14.3793L141.562 16.392ZM138.49 21.192L135.753 19.9648L135.735 20.0046L135.718 20.0449L138.49 21.192ZM136.667 27.144L139.599 27.7749L139.601 27.7665L136.667 27.144ZM133.115 43.656L136.043 44.3068L136.045 44.2969L136.047 44.2869L133.115 43.656ZM135.035 56.136L132.801 58.1386L132.837 58.1792L132.875 58.2184L135.035 56.136ZM126.739 28.527C128.659 19.3606 131.767 13.0788 135.766 9.24596L131.615 4.91403C126.398 9.91322 122.914 17.5194 120.866 27.297L126.739 28.527ZM135.751 9.26021C139.73 5.49984 145.318 3.45599 152.891 3.45599V-2.54401C144.207 -2.54401 136.995 -0.171848 131.63 4.89978L135.751 9.26021ZM152.891 3.45599C155.963 3.45599 158.569 3.94855 160.765 4.85922L163.064 -0.683228C160.012 -1.94856 156.602 -2.54401 152.891 -2.54401V3.45599ZM160.824 4.88273C163.06 5.75534 164.882 6.98316 166.345 8.55095L170.732 4.45704C168.611 2.18483 166.017 0.468655 163.005 -0.706738L160.824 4.88273ZM166.38 8.58778C167.856 10.1165 168.978 11.9462 169.739 14.119L175.402 12.1369C174.371 9.18982 172.805 6.60354 170.697 4.42022L166.38 8.58778ZM169.762 14.1814C170.586 16.3795 171.01 18.772 171.01 21.384H177.01C177.01 18.108 176.475 14.9965 175.379 12.0746L169.762 14.1814ZM171.01 21.384C171.01 22.354 170.953 23.325 170.839 24.2975L176.798 24.9985C176.94 23.795 177.01 22.5899 177.01 21.384H171.01ZM170.824 24.4718C170.77 25.3834 170.636 26.3005 170.418 27.2249L176.259 28.5991C176.553 27.3475 176.739 26.0886 176.813 24.8242L170.824 24.4718ZM170.403 27.2911L167.235 42.2671L173.106 43.5089L176.274 28.5329L170.403 27.2911ZM167.234 42.273C165.316 51.4309 162.18 57.7073 158.126 61.5398L162.247 65.9002C167.537 60.9007 171.057 53.2891 173.107 43.503L167.234 42.273ZM158.111 61.554C154.203 65.2995 148.658 67.344 141.083 67.344V73.344C149.763 73.344 156.954 70.9725 162.262 65.886L158.111 61.554ZM141.083 67.344C137.989 67.344 135.362 66.877 133.149 66.0133L130.968 71.6027C134.003 72.787 137.392 73.344 141.083 73.344V67.344ZM133.208 66.0368C130.925 65.0903 129.071 63.8396 127.593 62.3082L123.276 66.4758C125.382 68.6564 127.944 70.3497 130.909 71.5792L133.208 66.0368ZM127.628 62.345C126.103 60.7117 124.931 58.8345 124.107 56.6911L118.506 58.8449C119.602 61.6935 121.182 64.2323 123.241 66.439L127.628 62.345ZM124.138 56.7769C123.365 54.5683 122.963 52.1231 122.963 49.416H116.963C116.963 52.7249 117.456 55.8477 118.475 58.759L124.138 56.7769ZM122.963 49.416C122.963 48.3869 122.993 47.3576 123.053 46.3282L117.064 45.9758C116.996 47.1224 116.963 48.2691 116.963 49.416H122.963ZM123.038 46.5025C123.152 45.53 123.324 44.5544 123.555 43.5751L117.714 42.2009C117.433 43.3976 117.221 44.598 117.079 45.8015L123.038 46.5025ZM123.57 43.5089L126.738 28.5329L120.867 27.2911L117.699 42.2671L123.57 43.5089ZM142.234 61.824C144.764 61.824 147.127 61.3767 149.252 60.3959L146.737 54.9481C145.534 55.5033 144.057 55.824 142.234 55.824V61.824ZM149.336 60.3553C151.325 59.3611 153.066 58.0485 154.539 56.4207L150.09 52.3953C149.131 53.4555 147.992 54.3189 146.653 54.9887L149.336 60.3553ZM154.487 56.477C156.042 54.844 157.261 52.9245 158.159 50.7551L152.614 48.4609C151.976 50.0035 151.147 51.284 150.142 52.339L154.487 56.477ZM158.124 50.8352C159.048 48.7737 159.752 46.5858 160.241 44.2785L154.372 43.0335C153.965 44.9502 153.389 46.7303 152.649 48.3808L158.124 50.8352ZM160.239 44.2869L163.791 27.7749L157.926 26.5131L154.374 43.0251L160.239 44.2869ZM163.807 27.6969C164.009 26.6189 164.155 25.6546 164.23 24.8236L158.255 24.2804C158.202 24.8574 158.092 25.6211 157.91 26.5911L163.807 27.6969ZM164.202 25.0452C164.354 24.1311 164.435 23.2295 164.435 22.344H158.435C158.435 22.8665 158.387 23.4369 158.283 24.0588L164.202 25.0452ZM164.435 22.344C164.435 18.553 163.421 15.1859 161.002 12.6776L156.683 16.8424C157.72 17.9181 158.435 19.607 158.435 22.344H164.435ZM161.076 12.7574C158.714 10.1231 155.449 8.976 151.738 8.976V14.976C154.172 14.976 155.643 15.6849 156.609 16.7626L161.076 12.7574ZM151.738 8.976C149.176 8.976 146.783 9.46784 144.637 10.5407L147.32 15.9073C148.502 15.3162 149.949 14.976 151.738 14.976V8.976ZM144.721 10.5001C142.709 11.4288 140.928 12.7085 139.39 14.323L143.735 18.461C144.757 17.3875 145.92 16.5552 147.236 15.9479L144.721 10.5001ZM139.338 14.3793C137.887 15.9832 136.698 17.8564 135.753 19.9648L141.228 22.4192C141.947 20.8156 142.806 19.4888 143.787 18.4047L139.338 14.3793ZM135.718 20.0449C134.875 22.0825 134.215 24.2433 133.732 26.5215L139.601 27.7665C140.014 25.8207 140.57 24.0135 141.263 22.3391L135.718 20.0449ZM133.734 26.5131L130.182 43.0251L136.047 44.2869L139.599 27.7749L133.734 26.5131ZM130.186 43.0052C129.764 44.9054 129.538 46.7264 129.538 48.456H135.538C135.538 47.2416 135.697 45.8626 136.043 44.3068L130.186 43.0052ZM129.538 48.456C129.538 52.2252 130.507 55.5799 132.801 58.1386L137.268 54.1334C136.234 52.98 135.538 51.2148 135.538 48.456H129.538ZM132.875 58.2184C135.296 60.7286 138.551 61.824 142.234 61.824V55.824C139.774 55.824 138.229 55.1274 137.194 54.0536L132.875 58.2184ZM185.944 1.8V-1.2H182.944V1.8H185.944ZM234.328 1.8H237.328V-1.2H234.328V1.8ZM234.328 13.896V16.896H237.328V13.896H234.328ZM216.472 13.896V10.896H214.042L213.537 13.2723L216.472 13.896ZM204.76 69V72H207.189L207.694 69.6237L204.76 69ZM192.088 69L189.153 68.3763L188.383 72H192.088V69ZM203.8 13.896L206.734 14.5197L207.504 10.896H203.8V13.896ZM185.944 13.896H182.944V16.896H185.944V13.896ZM185.944 4.8H234.328V-1.2H185.944V4.8ZM231.328 1.8V13.896H237.328V1.8H231.328ZM234.328 10.896H216.472V16.896H234.328V10.896ZM213.537 13.2723L201.825 68.3763L207.694 69.6237L219.406 14.5197L213.537 13.2723ZM204.76 66H192.088V72H204.76V66ZM195.022 69.6237L206.734 14.5197L200.865 13.2723L189.153 68.3763L195.022 69.6237ZM203.8 10.896H185.944V16.896H203.8V10.896ZM188.944 13.896V1.8H182.944V13.896H188.944ZM241.365 27.912L244.3 28.5329L244.301 28.527L241.365 27.912ZM251.253 7.07999L249.192 4.89978L249.185 4.90688L249.177 4.91403L251.253 7.07999ZM279.477 2.088L278.328 4.85922L278.357 4.87128L278.386 4.88273L279.477 2.088ZM286.101 6.504L283.908 8.55095L283.925 8.56952L283.943 8.58778L286.101 6.504ZM290.133 13.128L287.301 14.119L287.312 14.1503L287.324 14.1814L290.133 13.128ZM291.381 24.648L288.402 24.2975L288.391 24.3844L288.386 24.4718L291.381 24.648ZM290.901 27.912L287.981 27.2249L287.973 27.2579L287.966 27.2911L290.901 27.912ZM287.733 42.888L284.798 42.2671L284.797 42.273L287.733 42.888ZM277.749 63.72L275.688 61.5398L275.681 61.5469L275.673 61.554L277.749 63.72ZM249.621 68.808L248.472 71.5792L248.501 71.5913L248.53 71.6027L249.621 68.808ZM242.997 64.392L240.804 66.439L240.821 66.4575L240.839 66.4758L242.997 64.392ZM238.869 57.768L236.037 58.759L236.053 58.8022L236.069 58.8449L238.869 57.768ZM237.621 46.152L234.642 45.8015L234.631 45.8884L234.626 45.9758L237.621 46.152ZM238.197 42.888L241.117 43.5751L241.125 43.5421L241.132 43.5089L238.197 42.888ZM265.557 57.672L266.814 60.3959L266.857 60.3762L266.899 60.3553L265.557 57.672ZM269.877 54.408L267.705 52.339L267.678 52.3668L267.652 52.3953L269.877 54.408ZM272.949 49.608L270.211 48.3808L270.194 48.4206L270.177 48.4609L272.949 49.608ZM274.869 43.656L271.936 43.0251L271.934 43.0335L274.869 43.656ZM278.421 27.144L281.354 27.7749L281.362 27.736L281.37 27.6969L278.421 27.144ZM278.805 24.552L275.846 24.0588L275.827 24.1691L275.817 24.2804L278.805 24.552ZM276.405 14.76L274.171 16.7626L274.208 16.8032L274.245 16.8424L276.405 14.76ZM263.541 13.224L264.798 15.9479L264.841 15.9282L264.883 15.9073L263.541 13.224ZM259.125 16.392L256.953 14.323L256.926 14.3508L256.9 14.3793L259.125 16.392ZM256.053 21.192L253.315 19.9648L253.298 20.0046L253.281 20.0449L256.053 21.192ZM254.229 27.144L257.162 27.7749L257.164 27.7665L254.229 27.144ZM250.677 43.656L253.606 44.3068L253.608 44.2969L253.61 44.2869L250.677 43.656ZM252.597 56.136L250.363 58.1386L250.4 58.1792L250.437 58.2184L252.597 56.136ZM244.301 28.527C246.221 19.3606 249.329 13.0788 253.329 9.24596L249.177 4.91403C243.961 9.91322 240.477 17.5194 238.429 27.297L244.301 28.527ZM253.314 9.26021C257.292 5.49984 262.88 3.45599 270.453 3.45599V-2.54401C261.77 -2.54401 254.558 -0.171848 249.192 4.89978L253.314 9.26021ZM270.453 3.45599C273.526 3.45599 276.132 3.94855 278.328 4.85922L280.626 -0.683228C277.574 -1.94856 274.164 -2.54401 270.453 -2.54401V3.45599ZM278.386 4.88273C280.622 5.75534 282.445 6.98316 283.908 8.55095L288.294 4.45704C286.173 2.18483 283.58 0.468655 280.568 -0.706738L278.386 4.88273ZM283.943 8.58778C285.419 10.1165 286.541 11.9462 287.301 14.119L292.965 12.1369C291.933 9.18982 290.367 6.60354 288.259 4.42022L283.943 8.58778ZM287.324 14.1814C288.148 16.3795 288.573 18.772 288.573 21.384H294.573C294.573 18.108 294.038 14.9965 292.942 12.0746L287.324 14.1814ZM288.573 21.384C288.573 22.354 288.516 23.325 288.402 24.2975L294.36 24.9985C294.502 23.795 294.573 22.5899 294.573 21.384H288.573ZM288.386 24.4718C288.333 25.3834 288.198 26.3005 287.981 27.2249L293.821 28.5991C294.116 27.3475 294.301 26.0886 294.376 24.8242L288.386 24.4718ZM287.966 27.2911L284.798 42.2671L290.668 43.5089L293.836 28.5329L287.966 27.2911ZM284.797 42.273C282.879 51.4309 279.743 57.7073 275.688 61.5398L279.81 65.9002C285.099 60.9007 288.62 53.2891 290.669 43.503L284.797 42.273ZM275.673 61.554C271.765 65.2995 266.22 67.344 258.645 67.344V73.344C267.326 73.344 274.517 70.9725 279.825 65.886L275.673 61.554ZM258.645 67.344C255.552 67.344 252.925 66.877 250.712 66.0133L248.53 71.6027C251.565 72.787 254.954 73.344 258.645 73.344V67.344ZM250.77 66.0368C248.487 65.0903 246.634 63.8396 245.155 62.3082L240.839 66.4758C242.944 68.6564 245.507 70.3497 248.472 71.5792L250.77 66.0368ZM245.19 62.345C243.666 60.7117 242.493 58.8345 241.669 56.6911L236.069 58.8449C237.165 61.6935 238.744 64.2323 240.804 66.439L245.19 62.345ZM241.701 56.7769C240.928 54.5683 240.525 52.1231 240.525 49.416H234.525C234.525 52.7249 235.018 55.8477 236.037 58.759L241.701 56.7769ZM240.525 49.416C240.525 48.3869 240.555 47.3576 240.616 46.3282L234.626 45.9758C234.559 47.1224 234.525 48.2691 234.525 49.416H240.525ZM240.6 46.5025C240.715 45.53 240.887 44.5544 241.117 43.5751L235.277 42.2009C234.995 43.3976 234.783 44.598 234.642 45.8015L240.6 46.5025ZM241.132 43.5089L244.3 28.5329L238.43 27.2911L235.262 42.2671L241.132 43.5089ZM259.797 61.824C262.327 61.824 264.689 61.3767 266.814 60.3959L264.3 54.9481C263.097 55.5033 261.619 55.824 259.797 55.824V61.824ZM266.899 60.3553C268.887 59.3611 270.629 58.0485 272.102 56.4207L267.652 52.3953C266.693 53.4555 265.555 54.3189 264.215 54.9887L266.899 60.3553ZM272.049 56.477C273.605 54.844 274.823 52.9245 275.721 50.7551L270.177 48.4609C269.539 50.0035 268.709 51.284 267.705 52.339L272.049 56.477ZM275.687 50.8352C276.611 48.7737 277.314 46.5858 277.804 44.2785L271.934 43.0335C271.528 44.9502 270.951 46.7303 270.211 48.3808L275.687 50.8352ZM277.802 44.2869L281.354 27.7749L275.488 26.5131L271.936 43.0251L277.802 44.2869ZM281.37 27.6969C281.572 26.6189 281.717 25.6546 281.793 24.8236L275.817 24.2804C275.765 24.8574 275.654 25.6211 275.472 26.5911L281.37 27.6969ZM281.764 25.0452C281.917 24.1311 281.997 23.2295 281.997 22.344H275.997C275.997 22.8665 275.949 23.4369 275.846 24.0588L281.764 25.0452ZM281.997 22.344C281.997 18.553 280.983 15.1859 278.565 12.6776L274.245 16.8424C275.283 17.9181 275.997 19.607 275.997 22.344H281.997ZM278.639 12.7574C276.277 10.1231 273.011 8.976 269.301 8.976V14.976C271.735 14.976 273.205 15.6849 274.171 16.7626L278.639 12.7574ZM269.301 8.976C266.738 8.976 264.345 9.46784 262.199 10.5407L264.883 15.9073C266.065 15.3162 267.512 14.976 269.301 14.976V8.976ZM262.284 10.5001C260.272 11.4288 258.49 12.7085 256.953 14.323L261.297 18.461C262.32 17.3875 263.482 16.5552 264.798 15.9479L262.284 10.5001ZM256.9 14.3793C255.449 15.9832 254.261 17.8564 253.315 19.9648L258.791 22.4192C259.509 20.8156 260.369 19.4888 261.35 18.4047L256.9 14.3793ZM253.281 20.0449C252.438 22.0825 251.778 24.2433 251.294 26.5215L257.164 27.7665C257.576 25.8207 258.132 24.0135 258.825 22.3391L253.281 20.0449ZM251.296 26.5131L247.744 43.0251L253.61 44.2869L257.162 27.7749L251.296 26.5131ZM247.748 43.0052C247.326 44.9054 247.101 46.7264 247.101 48.456H253.101C253.101 47.2416 253.26 45.8626 253.606 44.3068L247.748 43.0052ZM247.101 48.456C247.101 52.2252 248.069 55.5799 250.363 58.1386L254.831 54.1334C253.797 52.98 253.101 51.2148 253.101 48.456H247.101ZM250.437 58.2184C252.858 60.7286 256.114 61.824 259.797 61.824V55.824C257.336 55.824 255.792 55.1274 254.757 54.0536L250.437 58.2184ZM318.098 35.016V32.016H315.098V35.016H318.098ZM347.762 35.016H350.762V32.016H347.762V35.016ZM347.762 36.168L350.698 36.786L350.762 36.4804V36.168H347.762ZM340.85 69V72H343.284L343.786 69.618L340.85 69ZM329.33 69L326.399 68.3612L325.606 72H329.33V69ZM330.962 61.512L333.893 62.1508L334.687 58.512H330.962V61.512ZM329.234 61.512V58.512H327.401L326.565 60.1431L329.234 61.512ZM323.474 67.848L325.109 70.3633L325.131 70.3491L325.153 70.3345L323.474 67.848ZM306.194 69.096L307.294 66.3048L307.257 66.2902L307.219 66.2766L306.194 69.096ZM300.722 65.544L298.558 67.6216L300.722 65.544ZM297.074 59.688L294.244 60.6825L294.26 60.7292L294.278 60.7753L297.074 59.688ZM296.786 43.272L293.852 42.6459L293.852 42.6477L296.786 43.272ZM300.146 27.528L297.213 26.9008L297.212 26.9019L300.146 27.528ZM310.706 7.07999L312.663 9.3537L312.666 9.35174L310.706 7.07999ZM339.122 1.992L337.984 4.76751L338.026 4.7849L338.069 4.80099L339.122 1.992ZM345.554 6.024L347.676 3.90268L345.554 6.024ZM349.49 12.072L346.694 13.1593L346.713 13.2069L346.733 13.2537L349.49 12.072ZM350.738 22.152L353.712 22.5485L353.714 22.5363L353.715 22.5241L350.738 22.152ZM350.258 24.84L353.169 25.5676L353.175 25.5411L353.181 25.5146L350.258 24.84ZM349.97 25.992V28.992H352.313L352.881 26.7196L349.97 25.992ZM337.298 25.992L334.388 25.2644L333.456 28.992H337.298V25.992ZM337.586 24.84L334.676 24.1124V24.1124L337.586 24.84ZM337.97 22.824L334.989 22.4927L337.97 22.824ZM335.57 14.856L333.535 17.0604L333.559 17.0819L333.583 17.103L335.57 14.856ZM323.186 13.416L322.17 10.5933V10.5933L323.186 13.416ZM318.674 16.2L320.687 18.4246L320.692 18.4198L318.674 16.2ZM315.122 21.096L317.788 22.4719L317.797 22.4548L317.806 22.4376L315.122 21.096ZM312.626 28.488L309.695 27.8507L309.694 27.854L312.626 28.488ZM309.554 42.696L312.483 43.3468L312.485 43.3384L312.486 43.33L309.554 42.696ZM309.074 45.576L306.085 45.3269L309.074 45.576ZM311.666 55.656L313.749 53.4965L311.666 55.656ZM328.178 55.272L330.105 57.5716L330.111 57.5667L328.178 55.272ZM332.882 47.112L335.82 47.7216L336.569 44.112H332.882V47.112ZM318.098 47.112H315.098V50.112H318.098V47.112ZM318.098 38.016H347.762V32.016H318.098V38.016ZM344.762 35.016V36.168H350.762V35.016H344.762ZM344.827 35.55L337.915 68.382L343.786 69.618L350.698 36.786L344.827 35.55ZM340.85 66H329.33V72H340.85V66ZM332.261 69.6388L333.893 62.1508L328.031 60.8732L326.399 68.3612L332.261 69.6388ZM330.962 58.512H329.234V64.512H330.962V58.512ZM326.565 60.1431C325.538 62.1446 323.98 63.8872 321.796 65.3615L325.153 70.3345C328.089 68.3528 330.37 65.8714 331.904 62.881L326.565 60.1431ZM321.839 65.3327C319.932 66.5727 317.113 67.344 313.106 67.344V73.344C317.803 73.344 321.897 72.4513 325.109 70.3633L321.839 65.3327ZM313.106 67.344C310.949 67.344 309.022 66.9857 307.294 66.3048L305.095 71.8872C307.59 72.8703 310.271 73.344 313.106 73.344V67.344ZM307.219 66.2766C305.533 65.6633 304.1 64.7308 302.886 63.4664L298.558 67.6216C300.416 69.5573 302.632 70.9927 305.169 71.9154L307.219 66.2766ZM302.886 63.4664C301.654 62.1826 300.639 60.5784 299.87 58.6007L294.278 60.7753C295.301 63.4056 296.719 65.7054 298.558 67.6216L302.886 63.4664ZM299.905 58.6935C299.207 56.7075 298.826 54.3345 298.826 51.528H292.826C292.826 54.8655 293.278 57.9325 294.244 60.6825L299.905 58.6935ZM298.826 51.528C298.826 49.2835 299.115 46.7444 299.721 43.8963L293.852 42.6477C293.178 45.8156 292.826 48.7805 292.826 51.528H298.826ZM299.72 43.8981L303.08 28.1541L297.212 26.9019L293.852 42.6459L299.72 43.8981ZM303.08 28.1552C304.983 19.253 308.275 13.1309 312.663 9.3537L308.749 4.80629C303.025 9.73308 299.277 17.243 297.213 26.9008L303.08 28.1552ZM312.666 9.35174C317.136 5.49621 323.017 3.45599 330.578 3.45599V-2.54401C321.883 -2.54401 314.517 -0.168221 308.747 4.80825L312.666 9.35174ZM330.578 3.45599C333.459 3.45599 335.91 3.9166 337.984 4.76751L340.261 -0.783508C337.343 -1.98061 334.097 -2.54401 330.578 -2.54401V3.45599ZM338.069 4.80099C340.276 5.62856 342.042 6.7543 343.433 8.14532L347.676 3.90268C345.611 1.8377 343.089 0.275436 340.176 -0.81699L338.069 4.80099ZM343.433 8.14532C344.863 9.57567 345.947 11.2384 346.694 13.1593L352.286 10.9846C351.241 8.29758 349.701 5.92833 347.676 3.90268L343.433 8.14532ZM346.733 13.2537C347.525 15.1016 347.93 17.0974 347.93 19.272H353.93C353.93 16.3266 353.376 13.5224 352.248 10.8902L346.733 13.2537ZM347.93 19.272C347.93 20.0266 347.876 20.8612 347.761 21.7799L353.715 22.5241C353.856 21.3947 353.93 20.3094 353.93 19.272H347.93ZM347.765 21.7555C347.647 22.6342 347.503 23.4365 347.335 24.1654L353.181 25.5146C353.397 24.5795 353.573 23.5898 353.712 22.5485L347.765 21.7555ZM347.348 24.1124L347.06 25.2644L352.881 26.7196L353.169 25.5676L347.348 24.1124ZM349.97 22.992H337.298V28.992H349.97V22.992ZM340.209 26.7196L340.497 25.5676L334.676 24.1124L334.388 25.2644L340.209 26.7196ZM340.497 25.5676C340.71 24.7128 340.869 23.9031 340.952 23.1553L334.989 22.4927C334.944 22.8969 334.846 23.4312 334.676 24.1124L340.497 25.5676ZM340.952 23.1553C341.028 22.47 341.066 21.7834 341.066 21.096H335.066C335.066 21.5606 335.04 22.026 334.989 22.4927L340.952 23.1553ZM341.066 21.096C341.066 17.7451 339.999 14.7688 337.558 12.609L333.583 17.103C334.469 17.8872 335.066 19.0709 335.066 21.096H341.066ZM337.605 12.6516C335.194 10.4261 331.917 9.552 328.274 9.552V15.552C331.031 15.552 332.618 16.2139 333.535 17.0604L337.605 12.6516ZM328.274 9.552C326.155 9.552 324.113 9.89379 322.17 10.5933L324.202 16.2387C325.459 15.7862 326.81 15.552 328.274 15.552V9.552ZM322.17 10.5933C320.158 11.3176 318.321 12.4669 316.656 13.9802L320.692 18.4198C321.844 17.3731 323.014 16.6664 324.202 16.2387L322.17 10.5933ZM316.661 13.9754C314.979 15.4977 313.588 17.4572 312.439 19.7544L317.806 22.4376C318.705 20.6388 319.682 19.3343 320.687 18.4246L316.661 13.9754ZM312.456 19.7201C311.278 22.0027 310.372 24.733 309.695 27.8507L315.558 29.1253C316.16 26.355 316.918 24.1573 317.788 22.4719L312.456 19.7201ZM309.694 27.854L306.622 42.062L312.486 43.33L315.559 29.122L309.694 27.854ZM306.626 42.0452C306.354 43.268 306.164 44.3728 306.085 45.3269L312.064 45.8251C312.112 45.2432 312.243 44.428 312.483 43.3468L306.626 42.0452ZM306.085 45.3269C306.014 46.1774 305.978 47.0286 305.978 47.88H311.978C311.978 47.1954 312.007 46.5106 312.064 45.8251L306.085 45.3269ZM305.978 47.88C305.978 51.8267 307.007 55.3311 309.584 57.8155L313.749 53.4965C312.741 52.5249 311.978 50.8453 311.978 47.88H305.978ZM309.584 57.8155C312.059 60.2026 315.305 61.248 318.962 61.248V55.248C316.475 55.248 314.857 54.5654 313.749 53.4965L309.584 57.8155ZM318.962 61.248C323.28 61.248 327.084 60.1024 330.105 57.5716L326.252 52.9724C324.536 54.4096 322.196 55.248 318.962 55.248V61.248ZM330.111 57.5667C333.104 55.046 334.992 51.7093 335.82 47.7216L329.945 46.5023C329.364 49.2987 328.116 51.402 326.246 52.9773L330.111 57.5667ZM332.882 44.112H318.098V50.112H332.882V44.112ZM321.098 47.112V35.016H315.098V47.112H321.098ZM397.232 69V72H399.655L400.165 69.6302L397.232 69ZM384.367 69L381.434 68.3714L380.657 72H384.367V69ZM388.688 48.84L391.621 49.4686L391.625 49.4485L391.629 49.4283L388.688 48.84ZM387.824 44.712L385.702 46.8333L385.753 46.8838L385.805 46.9318L387.824 44.712ZM370.639 43.656V40.656H368.209L367.705 43.0335L370.639 43.656ZM365.263 69V72H367.694L368.198 69.6225L365.263 69ZM352.688 69L349.752 68.3794L348.987 72H352.688V69ZM366.896 1.8V-1.2H364.463L363.96 1.17943L366.896 1.8ZM398.768 3.144L397.706 5.94986L397.751 5.9669L397.796 5.98249L398.768 3.144ZM404.815 6.6L402.784 8.80779L402.83 8.84994L402.878 8.89015L404.815 6.6ZM408.464 11.688L405.666 12.771L405.681 12.8098L405.697 12.8482L408.464 11.688ZM406.448 29.352L404.035 27.5688L404.028 27.5779L406.448 29.352ZM396.656 35.88L395.707 33.034L393.656 33.7177V35.88H396.656ZM396.656 37.608H393.656V40.3137L396.347 40.5921L396.656 37.608ZM400.88 39.624L398.575 41.5446L398.633 41.6141L398.695 41.6801L400.88 39.624ZM402.224 45.768L405.157 46.3982L405.161 46.3773L405.165 46.3563L402.224 45.768ZM373.232 31.56L370.297 30.938L369.529 34.56H373.232V31.56ZM393.104 28.872L395.011 31.1878L393.104 28.872ZM394.352 15.912L392.179 17.981L392.204 18.0075L392.23 18.0333L394.352 15.912ZM376.975 13.896V10.896H374.545L374.041 13.2739L376.975 13.896ZM397.232 66H384.367V72H397.232V66ZM387.301 69.6286L391.621 49.4686L385.754 48.2114L381.434 68.3714L387.301 69.6286ZM391.629 49.4283C391.773 48.7088 391.879 47.9753 391.879 47.304H385.879C385.879 47.4007 385.858 47.6912 385.746 48.2517L391.629 49.4283ZM391.879 47.304C391.879 45.5046 391.264 43.785 389.842 42.4922L385.805 46.9318C385.824 46.9484 385.83 46.9571 385.83 46.9579C385.831 46.9585 385.833 46.9615 385.837 46.9719C385.845 46.9899 385.879 47.0845 385.879 47.304H391.879ZM389.945 42.5907C388.458 41.1035 386.449 40.656 384.56 40.656V46.656C385.614 46.656 385.781 46.9125 385.702 46.8333L389.945 42.5907ZM384.56 40.656H370.639V46.656H384.56V40.656ZM367.705 43.0335L362.329 68.3775L368.198 69.6225L373.574 44.2785L367.705 43.0335ZM365.263 66H352.688V72H365.263V66ZM355.623 69.6206L369.831 2.42056L363.96 1.17943L349.752 68.3794L355.623 69.6206ZM366.896 4.8H390.512V-1.2H366.896V4.8ZM390.512 4.8C393.368 4.8 395.747 5.20877 397.706 5.94986L399.829 0.338135C397.052 -0.712776 393.927 -1.2 390.512 -1.2V4.8ZM397.796 5.98249C399.906 6.70414 401.541 7.66371 402.784 8.80779L406.847 4.3922C404.89 2.59229 402.493 1.24786 399.739 0.305504L397.796 5.98249ZM402.878 8.89015C404.168 9.98232 405.084 11.2668 405.666 12.771L411.261 10.605C410.307 8.1412 408.791 6.03368 406.753 4.30984L402.878 8.89015ZM405.697 12.8482C406.373 14.4605 406.712 16.1457 406.712 17.928H412.712C412.712 15.3583 412.218 12.8835 411.23 10.5278L405.697 12.8482ZM406.712 17.928C406.712 22.1365 405.735 25.2681 404.035 27.5688L408.86 31.1352C411.512 27.5479 412.712 23.0635 412.712 17.928H406.712ZM404.028 27.5779C402.381 29.8245 399.711 31.6991 395.707 33.034L397.604 38.726C402.432 37.1169 406.29 34.6395 408.867 31.1261L404.028 27.5779ZM393.656 35.88V37.608H399.656V35.88H393.656ZM396.347 40.5921C397.625 40.7243 398.232 41.1327 398.575 41.5446L403.184 37.7034C401.607 35.8113 399.398 34.8757 396.964 34.6239L396.347 40.5921ZM398.695 41.6801C399.113 42.1247 399.415 42.7559 399.415 43.848H405.415C405.415 41.4841 404.694 39.2993 403.064 37.5679L398.695 41.6801ZM399.415 43.848C399.415 44.2866 399.372 44.7295 399.282 45.1797L405.165 46.3563C405.331 45.5265 405.415 44.6894 405.415 43.848H399.415ZM399.29 45.1378L394.298 68.3698L400.165 69.6302L405.157 46.3982L399.29 45.1378ZM373.232 34.56H384.751V28.56H373.232V34.56ZM384.751 34.56C388.692 34.56 392.194 33.5074 395.011 31.1878L391.196 26.5562C389.661 27.8206 387.595 28.56 384.751 28.56V34.56ZM395.011 31.1878C397.946 28.7701 399.367 25.4529 399.367 21.576H393.367C393.367 23.8431 392.613 25.3899 391.196 26.5562L395.011 31.1878ZM399.367 21.576C399.367 18.5814 398.525 15.8431 396.473 13.7907L392.23 18.0333C392.866 18.6689 393.367 19.7066 393.367 21.576H399.367ZM396.524 13.843C394.464 11.6805 391.537 10.896 388.4 10.896V16.896C390.638 16.896 391.679 17.4555 392.179 17.981L396.524 13.843ZM388.4 10.896H376.975V16.896H388.4V10.896ZM374.041 13.2739L370.297 30.938L376.166 32.182L379.91 14.5181L374.041 13.2739ZM448.717 54.6L451.716 54.56L451.677 51.6H448.717V54.6ZM426.541 54.6V51.6H424.559L423.781 53.4227L426.541 54.6ZM420.397 69V72H422.378L423.156 70.1773L420.397 69ZM406.861 69L404.115 67.7918L402.263 72H406.861V69ZM436.429 1.8V-1.2H434.471L433.683 0.591778L436.429 1.8ZM459.853 1.8L462.852 1.72716L462.781 -1.2H459.853V1.8ZM461.485 69V72H464.559L464.484 68.9272L461.485 69ZM448.909 69L445.909 69.04L445.948 72H448.909V69ZM431.629 42.504L428.87 41.325L427.084 45.504H431.629V42.504ZM448.525 42.504V45.504H451.567L451.524 42.4621L448.525 42.504ZM448.045 8.136L451.044 8.0941L451.003 5.136H448.045V8.136ZM446.317 8.136V5.136H444.336L443.558 6.95703L446.317 8.136ZM448.717 51.6H426.541V57.6H448.717V51.6ZM423.781 53.4227L417.637 67.8227L423.156 70.1773L429.3 55.7773L423.781 53.4227ZM420.397 66H406.861V72H420.397V66ZM409.607 70.2082L439.175 3.00821L433.683 0.591778L404.115 67.7918L409.607 70.2082ZM436.429 4.8H459.853V-1.2H436.429V4.8ZM456.854 1.87283L458.486 69.0728L464.484 68.9272L462.852 1.72716L456.854 1.87283ZM461.485 66H448.909V72H461.485V66ZM451.908 68.96L451.716 54.56L445.717 54.64L445.909 69.04L451.908 68.96ZM431.629 45.504H448.525V39.504H431.629V45.504ZM451.524 42.4621L451.044 8.0941L445.045 8.17789L445.525 42.5459L451.524 42.4621ZM448.045 5.136H446.317V11.136H448.045V5.136ZM443.558 6.95703L428.87 41.325L434.387 43.683L449.075 9.31497L443.558 6.95703ZM488.202 43.656V40.656H485.772L485.267 43.0335L488.202 43.656ZM482.826 69V72H485.256L485.761 69.6225L482.826 69ZM470.25 69L467.315 68.3794L466.549 72H470.25V69ZM484.458 1.8V-1.2H482.026L481.523 1.17943L484.458 1.8ZM516.042 3.144L514.928 5.92942L514.941 5.93478L514.955 5.94001L516.042 3.144ZM525.546 12.552L522.744 13.6234L522.757 13.659L522.772 13.6942L525.546 12.552ZM519.882 37.032L521.94 39.2148L519.882 37.032ZM511.818 41.928L512.852 44.744L511.818 41.928ZM490.794 31.56L487.859 30.938L487.091 34.56H490.794V31.56ZM510.666 28.68L512.651 30.9295L510.666 28.68ZM511.626 15.816L509.657 18.0798L509.71 18.1252L509.764 18.1681L511.626 15.816ZM494.538 13.896V10.896H492.107L491.603 13.2739L494.538 13.896ZM485.267 43.0335L479.891 68.3775L485.761 69.6225L491.137 44.2785L485.267 43.0335ZM482.826 66H470.25V72H482.826V66ZM473.185 69.6206L487.393 2.42056L481.523 1.17943L467.315 68.3794L473.185 69.6206ZM484.458 4.8H508.458V-1.2H484.458V4.8ZM508.458 4.8C510.955 4.8 513.096 5.19678 514.928 5.92942L517.156 0.358566C514.508 -0.70079 511.593 -1.2 508.458 -1.2V4.8ZM514.955 5.94001C516.907 6.69931 518.497 7.72975 519.777 9.00932L524.019 4.76668C522.099 2.84624 519.785 1.38068 517.129 0.34798L514.955 5.94001ZM519.777 9.00932C521.07 10.3022 522.058 11.8294 522.744 13.6234L528.348 11.4806C527.37 8.9226 525.926 6.67382 524.019 4.76668L519.777 9.00932ZM522.772 13.6942C523.506 15.4772 523.89 17.4532 523.89 19.656H529.89C529.89 16.7388 529.378 13.9788 528.32 11.4098L522.772 13.6942ZM523.89 19.656C523.89 22.8961 523.342 25.7647 522.293 28.3027L527.839 30.5933C529.222 27.2433 529.89 23.5839 529.89 19.656H523.89ZM522.293 28.3027C521.234 30.8681 519.744 33.0387 517.824 34.8492L521.94 39.2148C524.5 36.8013 526.466 33.9159 527.839 30.5933L522.293 28.3027ZM517.824 34.8492C515.903 36.6602 513.572 38.0877 510.784 39.112L512.852 44.744C516.336 43.4643 519.381 41.6278 521.94 39.2148L517.824 34.8492ZM510.784 39.112C508.024 40.1256 504.893 40.656 501.354 40.656V46.656C505.495 46.656 509.34 46.0344 512.852 44.744L510.784 39.112ZM501.354 40.656H488.202V46.656H501.354V40.656ZM490.794 34.56H502.506V28.56H490.794V34.56ZM502.506 34.56C506.403 34.56 509.858 33.3941 512.651 30.9295L508.681 26.4305C507.122 27.8059 505.137 28.56 502.506 28.56V34.56ZM512.651 30.9295C515.514 28.4033 516.93 25.0676 516.93 21.192H510.93C510.93 23.4604 510.17 25.1167 508.681 26.4305L512.651 30.9295ZM516.93 21.192C516.93 18.1198 515.894 15.3689 513.488 13.4639L509.764 18.1681C510.43 18.6951 510.93 19.5282 510.93 21.192H516.93ZM513.595 13.5522C511.452 11.6888 508.741 10.896 505.77 10.896V16.896C507.663 16.896 508.856 17.3832 509.657 18.0798L513.595 13.5522ZM505.77 10.896H494.538V16.896H505.77V10.896ZM491.603 13.2739L487.859 30.938L493.729 32.182L497.473 14.5181L491.603 13.2739ZM543.239 1.8V-1.2H540.807L540.304 1.17943L543.239 1.8ZM555.911 1.8L558.845 2.42578L559.619 -1.2H555.911V1.8ZM550.055 29.256L547.121 28.6302L546.348 32.256H550.055V29.256ZM569.255 29.256V32.256H571.683L572.189 29.8818L569.255 29.256ZM575.111 1.8V-1.2H572.684L572.177 1.17421L575.111 1.8ZM587.783 1.8L590.718 2.42458L591.489 -1.2H587.783V1.8ZM573.479 69V72H575.908L576.414 69.6246L573.479 69ZM560.807 69L557.872 68.3784L557.105 72H560.807V69ZM566.663 41.352L569.598 41.9736L570.365 38.352H566.663V41.352ZM547.463 41.352V38.352H545.032L544.528 40.7304L547.463 41.352ZM541.607 69V72H544.038L544.542 69.6216L541.607 69ZM529.031 69L526.096 68.3794L525.331 72H529.031V69ZM543.239 4.8H555.911V-1.2H543.239V4.8ZM552.977 1.17421L547.121 28.6302L552.989 29.8818L558.845 2.42578L552.977 1.17421ZM550.055 32.256H569.255V26.256H550.055V32.256ZM572.189 29.8818L578.045 2.42578L572.177 1.17421L566.321 28.6302L572.189 29.8818ZM575.111 4.8H587.783V-1.2H575.111V4.8ZM584.849 1.17542L570.545 68.3754L576.414 69.6246L590.718 2.42458L584.849 1.17542ZM573.479 66H560.807V72H573.479V66ZM563.742 69.6216L569.598 41.9736L563.728 40.7304L557.872 68.3784L563.742 69.6216ZM566.663 38.352H547.463V44.352H566.663V38.352ZM544.528 40.7304L538.672 68.3784L544.542 69.6216L550.398 41.9736L544.528 40.7304ZM541.607 66H529.031V72H541.607V66ZM531.966 69.6206L546.174 2.42056L540.304 1.17943L526.096 68.3794L531.966 69.6206ZM589.541 67.848L586.606 67.2252L586.541 67.5332V67.848H589.541ZM603.557 1.8V-1.2H601.126L600.622 1.17723L603.557 1.8ZM643.396 1.8H646.396V-1.2H643.396V1.8ZM643.396 13.896V16.896H646.396V13.896H643.396ZM613.636 13.896V10.896H611.207L610.702 13.2724L613.636 13.896ZM610.372 29.256L607.438 28.6324L606.668 32.256H610.372V29.256ZM636.388 29.256H639.388V26.256H636.388V29.256ZM636.388 41.352V44.352H639.388V41.352H636.388ZM607.781 41.352V38.352H605.345L604.844 40.7358L607.781 41.352ZM604.516 56.904L601.58 56.2878L600.822 59.904H604.516V56.904ZM632.836 56.904H635.836V53.904H632.836V56.904ZM632.836 69V72H635.836V69H632.836ZM589.541 69H586.541V72H589.541V69ZM592.475 68.4708L606.491 2.42276L600.622 1.17723L586.606 67.2252L592.475 68.4708ZM603.557 4.8H643.396V-1.2H603.557V4.8ZM640.396 1.8V13.896H646.396V1.8H640.396ZM643.396 10.896H613.636V16.896H643.396V10.896ZM610.702 13.2724L607.438 28.6324L613.307 29.8796L616.571 14.5196L610.702 13.2724ZM610.372 32.256H636.388V26.256H610.372V32.256ZM633.388 29.256V41.352H639.388V29.256H633.388ZM636.388 38.352H607.781V44.352H636.388V38.352ZM604.844 40.7358L601.58 56.2878L607.453 57.5202L610.717 41.9682L604.844 40.7358ZM604.516 59.904H632.836V53.904H604.516V59.904ZM629.836 56.904V69H635.836V56.904H629.836ZM632.836 66H589.541V72H632.836V66ZM592.541 69V67.848H586.541V69H592.541ZM707.103 67.848L704.168 67.2252L704.103 67.5332V67.848H707.103ZM721.119 1.8V-1.2H718.689L718.184 1.17723L721.119 1.8ZM760.959 1.8H763.959V-1.2H760.959V1.8ZM760.959 13.896V16.896H763.959V13.896H760.959ZM731.199 13.896V10.896H728.77L728.265 13.2724L731.199 13.896ZM727.935 29.256L725.001 28.6324L724.231 32.256H727.935V29.256ZM753.951 29.256H756.951V26.256H753.951V29.256ZM753.951 41.352V44.352H756.951V41.352H753.951ZM725.343 41.352V38.352H722.907L722.407 40.7358L725.343 41.352ZM722.079 56.904L719.143 56.2878L718.384 59.904H722.079V56.904ZM750.399 56.904H753.399V53.904H750.399V56.904ZM750.399 69V72H753.399V69H750.399ZM707.103 69H704.103V72H707.103V69ZM710.038 68.4708L724.054 2.42276L718.184 1.17723L704.168 67.2252L710.038 68.4708ZM721.119 4.8H760.959V-1.2H721.119V4.8ZM757.959 1.8V13.896H763.959V1.8H757.959ZM760.959 10.896H731.199V16.896H760.959V10.896ZM728.265 13.2724L725.001 28.6324L730.87 29.8796L734.133 14.5196L728.265 13.2724ZM727.935 32.256H753.951V26.256H727.935V32.256ZM750.951 29.256V41.352H756.951V29.256H750.951ZM753.951 38.352H725.343V44.352H753.951V38.352ZM722.407 40.7358L719.143 56.2878L725.015 57.5202L728.279 41.9682L722.407 40.7358ZM722.079 59.904H750.399V53.904H722.079V59.904ZM747.399 56.904V69H753.399V56.904H747.399ZM750.399 66H707.103V72H750.399V66ZM710.103 69V67.848H704.103V69H710.103ZM769.916 1.8V-1.2H766.767L766.92 1.94554L769.916 1.8ZM782.78 1.8L785.778 1.69123L785.673 -1.2H782.78V1.8ZM784.988 62.664L781.99 62.7728L782.095 65.664H784.988V62.664ZM786.716 62.664V65.664H788.702L789.478 63.8358L786.716 62.664ZM812.54 1.8V-1.2H810.554L809.779 0.628235L812.54 1.8ZM825.788 1.8H828.788V-1.2H825.788V1.8ZM825.788 2.952L828.535 4.15781L828.788 3.58144V2.952H825.788ZM796.796 69V72H798.756L799.543 70.2058L796.796 69ZM773.18 69L770.184 69.1455L770.322 72H773.18V69ZM769.916 4.8H782.78V-1.2H769.916V4.8ZM779.782 1.90876L781.99 62.7728L787.986 62.5552L785.778 1.69123L779.782 1.90876ZM784.988 65.664H786.716V59.664H784.988V65.664ZM789.478 63.8358L815.302 2.97176L809.779 0.628235L783.955 61.4922L789.478 63.8358ZM812.54 4.8H825.788V-1.2H812.54V4.8ZM822.788 1.8V2.952H828.788V1.8H822.788ZM823.041 1.74619L794.049 67.7942L799.543 70.2058L828.535 4.15781L823.041 1.74619ZM796.796 66H773.18V72H796.796V66ZM776.177 68.8545L772.913 1.65445L766.92 1.94554L770.184 69.1455L776.177 68.8545ZM824.666 67.848L821.731 67.2252L821.666 67.5332V67.848H824.666ZM838.682 1.8V-1.2H836.251L835.747 1.17723L838.682 1.8ZM878.521 1.8H881.521V-1.2H878.521V1.8ZM878.521 13.896V16.896H881.521V13.896H878.521ZM848.761 13.896V10.896H846.332L845.827 13.2724L848.761 13.896ZM845.497 29.256L842.563 28.6324L841.793 32.256H845.497V29.256ZM871.513 29.256H874.513V26.256H871.513V29.256ZM871.513 41.352V44.352H874.513V41.352H871.513ZM842.906 41.352V38.352H840.47L839.969 40.7358L842.906 41.352ZM839.641 56.904L836.705 56.2878L835.947 59.904H839.641V56.904ZM867.961 56.904H870.961V53.904H867.961V56.904ZM867.961 69V72H870.961V69H867.961ZM824.666 69H821.666V72H824.666V69ZM827.6 68.4708L841.616 2.42276L835.747 1.17723L821.731 67.2252L827.6 68.4708ZM838.682 4.8H878.521V-1.2H838.682V4.8ZM875.521 1.8V13.896H881.521V1.8H875.521ZM878.521 10.896H848.761V16.896H878.521V10.896ZM845.827 13.2724L842.563 28.6324L848.432 29.8796L851.696 14.5196L845.827 13.2724ZM845.497 32.256H871.513V26.256H845.497V32.256ZM868.513 29.256V41.352H874.513V29.256H868.513ZM871.513 38.352H842.906V44.352H871.513V38.352ZM839.969 40.7358L836.705 56.2878L842.578 57.5202L845.842 41.9682L839.969 40.7358ZM839.641 59.904H867.961V53.904H839.641V59.904ZM864.961 56.904V69H870.961V56.904H864.961ZM867.961 66H824.666V72H867.961V66ZM827.666 69V67.848H821.666V69H827.666ZM914.359 62.664L911.367 62.4422L911.128 65.664H914.359V62.664ZM916.087 62.664V65.664H918.515L919.021 63.2888L916.087 62.664ZM929.047 1.8V-1.2H926.618L926.113 1.1752L929.047 1.8ZM941.143 1.8L944.077 2.42458L944.849 -1.2H941.143V1.8ZM926.839 69V72H929.267L929.773 69.6246L926.839 69ZM903.223 69L900.231 68.7782L899.992 72H903.223V69ZM907.735 8.136L910.727 8.35779L910.965 5.136H907.735V8.136ZM906.007 8.136V5.136H903.578L903.073 7.5112L906.007 8.136ZM893.047 69V72H895.475L895.981 69.6248L893.047 69ZM881.047 69L878.112 68.3794L877.346 72H881.047V69ZM895.255 1.8V-1.2H892.823L892.32 1.17943L895.255 1.8ZM918.871 1.8L921.863 2.02179L922.101 -1.2H918.871V1.8ZM914.359 65.664H916.087V59.664H914.359V65.664ZM919.021 63.2888L931.981 2.42479L926.113 1.1752L913.153 62.0392L919.021 63.2888ZM929.047 4.8H941.143V-1.2H929.047V4.8ZM938.208 1.17542L923.904 68.3754L929.773 69.6246L944.077 2.42458L938.208 1.17542ZM926.839 66H903.223V72H926.839V66ZM906.215 69.2218L910.727 8.35779L904.743 7.91421L900.231 68.7782L906.215 69.2218ZM907.735 5.136H906.007V11.136H907.735V5.136ZM903.073 7.5112L890.113 68.3752L895.981 69.6248L908.941 8.7608L903.073 7.5112ZM893.047 66H881.047V72H893.047V66ZM883.982 69.6206L898.19 2.42056L892.32 1.17943L878.112 68.3794L883.982 69.6206ZM895.255 4.8H918.871V-1.2H895.255V4.8ZM915.879 1.57821L911.367 62.4422L917.351 62.8858L921.863 2.02179L915.879 1.57821ZM950.1 1.8V-1.2H947.1V1.8H950.1ZM998.484 1.8H1001.48V-1.2H998.484V1.8ZM998.484 13.896V16.896H1001.48V13.896H998.484ZM980.628 13.896V10.896H978.199L977.694 13.2723L980.628 13.896ZM968.916 69V72H971.345L971.85 69.6237L968.916 69ZM956.244 69L953.31 68.3763L952.539 72H956.244V69ZM967.956 13.896L970.89 14.5197L971.661 10.896H967.956V13.896ZM950.1 13.896H947.1V16.896H950.1V13.896ZM950.1 4.8H998.484V-1.2H950.1V4.8ZM995.484 1.8V13.896H1001.48V1.8H995.484ZM998.484 10.896H980.628V16.896H998.484V10.896ZM977.694 13.2723L965.982 68.3763L971.85 69.6237L983.562 14.5197L977.694 13.2723ZM968.916 66H956.244V72H968.916V66ZM959.178 69.6237L970.89 14.5197L965.022 13.2723L953.31 68.3763L959.178 69.6237ZM967.956 10.896H950.1V16.896H967.956V10.896ZM953.1 13.896V1.8H947.1V13.896H953.1Z" fill="white"/>
</svg>
